<svg id="icon" xmlns="http://www.w3.org/2000/svg" width="125" height="120" viewBox="0 0 125 120">
  <path id="パス_76" data-name="パス 76" d="M108.672,169.815h57.3a1.6,1.6,0,0,0,1.352-2.538l-28.666-44.25a1.7,1.7,0,0,0-2.734,0l-28.636,44.25A1.615,1.615,0,0,0,108.672,169.815Zm58.323-16.731,10.517,16.067a1.648,1.648,0,0,0,1.352.692h15.986a1.6,1.6,0,0,0,1.352-2.538l-18.51-25.3a1.7,1.7,0,0,0-2.734,0l-7.993,9.26A1.607,1.607,0,0,0,166.995,153.085Zm13.341-24.923a8.086,8.086,0,1,0-9.225-8.856A8.28,8.28,0,0,0,180.336,128.162Z" transform="translate(-89.261 -93.575)" fill="#fff"/>
  <path id="パス_77" data-name="パス 77" d="M163.385,48H57.615A9.419,9.419,0,0,0,48,57.231V158.769A9.419,9.419,0,0,0,57.615,168H163.385A9.419,9.419,0,0,0,173,158.769V57.231A9.419,9.419,0,0,0,163.385,48Zm-.811,80.769a2.364,2.364,0,0,1-2.4,2.308H60.831a2.364,2.364,0,0,1-2.4-2.308V60.317a2.364,2.364,0,0,1,2.4-2.308H160.2a2.364,2.364,0,0,1,2.4,2.308v68.452Z" transform="translate(-48 -48)" fill="#fff"/>
</svg>
