<svg width="350" height="100" viewBox="0 0 350 100" fill="none" xmlns="http://www.w3.org/2000/svg">
<rect width="350" height="100" fill="white"/>
<path d="M40.1634 17.3636V61H33.1321L12.571 31.277H12.2088V61H4.30398V17.3636H11.3778L31.9176 47.108H32.3011V17.3636H40.1634ZM48.7766 61V17.3636H77.1573V23.9901H56.6815V35.8366H75.6871V42.4631H56.6815V54.3736H77.3278V61H48.7766ZM94.4052 61L82.0898 17.3636H90.5913L98.4535 49.4304H98.8583L107.253 17.3636H114.988L123.404 49.4517H123.787L131.65 17.3636H140.151L127.836 61H120.037L111.301 30.3821H110.961L102.203 61H94.4052ZM169.054 29.3594C168.855 27.4986 168.017 26.0497 166.539 25.0128C165.076 23.9759 163.173 23.4574 160.829 23.4574C159.181 23.4574 157.768 23.706 156.589 24.2031C155.41 24.7003 154.508 25.375 153.883 26.2273C153.258 27.0795 152.939 28.0526 152.924 29.1463C152.924 30.0554 153.13 30.8437 153.542 31.5114C153.968 32.179 154.544 32.7472 155.268 33.2159C155.993 33.6705 156.795 34.054 157.676 34.3665C158.556 34.679 159.444 34.9418 160.339 35.1548L164.43 36.1776C166.078 36.5611 167.662 37.0795 169.181 37.733C170.716 38.3864 172.086 39.2102 173.294 40.2045C174.515 41.1989 175.481 42.3991 176.191 43.8054C176.902 45.2116 177.257 46.8594 177.257 48.7486C177.257 51.3054 176.603 53.5568 175.297 55.5028C173.99 57.4347 172.1 58.9474 169.629 60.0412C167.172 61.1207 164.196 61.6605 160.701 61.6605C157.306 61.6605 154.359 61.1349 151.859 60.0838C149.373 59.0327 147.427 57.4986 146.021 55.4815C144.629 53.4645 143.876 51.0071 143.762 48.1094H151.539C151.653 49.6293 152.122 50.8935 152.946 51.902C153.77 52.9105 154.842 53.6634 156.163 54.1605C157.498 54.6577 158.99 54.9062 160.637 54.9062C162.356 54.9062 163.862 54.6506 165.154 54.1392C166.461 53.6136 167.484 52.8892 168.223 51.9659C168.961 51.0284 169.338 49.9347 169.352 48.6847C169.338 47.5483 169.004 46.6108 168.35 45.8722C167.697 45.1193 166.781 44.4943 165.602 43.9972C164.437 43.4858 163.074 43.0312 161.511 42.6335L156.547 41.3551C152.953 40.4318 150.112 39.0327 148.024 37.1577C145.95 35.2685 144.913 32.7614 144.913 29.6364C144.913 27.0653 145.609 24.8139 147.001 22.8821C148.407 20.9503 150.318 19.4517 152.733 18.3864C155.147 17.3068 157.882 16.767 160.936 16.767C164.032 16.767 166.745 17.3068 169.075 18.3864C171.419 19.4517 173.258 20.9361 174.593 22.8395C175.929 24.7287 176.618 26.902 176.66 29.3594H169.054Z" fill="black"/>
<path d="M4.394 73.346V77.116C5.278 77.09 6.474 77.038 7.462 77.038C8.918 77.038 16.848 77.038 18.226 77.038C19.136 77.038 20.358 77.09 21.112 77.116V73.346C20.358 73.45 19.266 73.502 18.226 73.502C16.796 73.502 9.646 73.502 7.462 73.502C6.552 73.502 5.356 73.45 4.394 73.346ZM2.21 86.086V90.064C3.198 89.96 4.446 89.882 5.486 89.882C7.124 89.882 18.772 89.882 20.41 89.882C21.164 89.882 22.334 89.96 23.27 90.064V86.086C22.386 86.164 21.268 86.242 20.41 86.242C18.772 86.242 7.124 86.242 5.486 86.242C4.446 86.242 3.224 86.138 2.21 86.086ZM45.708 78.624L43.212 77.402C42.874 77.584 41.808 77.688 41.288 77.688C40.04 77.688 35.932 77.688 34.606 77.688C33.93 77.688 32.734 77.61 32.032 77.506V80.938C32.786 80.886 33.826 80.834 34.632 80.834C35.386 80.834 40.43 80.834 41.678 80.834C41.548 82.576 40.768 87.594 40.43 89.31H44.018C44.33 87.438 45.214 81.536 45.474 79.716C45.5 79.43 45.604 78.962 45.708 78.624ZM29.666 88.036V91.442C30.628 91.39 31.304 91.364 32.214 91.364C33.54 91.364 44.564 91.364 45.916 91.364C46.592 91.364 47.866 91.39 48.412 91.416V88.062C47.736 88.14 46.514 88.192 45.864 88.192C44.59 88.192 33.774 88.192 32.214 88.192C31.33 88.192 30.342 88.114 29.666 88.036ZM54.366 78.962V83.07C55.354 82.992 57.096 82.914 58.552 82.914C61.62 82.914 70.174 82.914 72.54 82.914C73.632 82.914 74.958 83.044 75.582 83.07V78.962C74.88 79.014 73.736 79.144 72.514 79.144C70.2 79.144 61.62 79.144 58.552 79.144C57.2 79.144 55.328 79.04 54.366 78.962ZM98.3631 73.398L96.2571 71.812C95.7111 71.994 94.6971 72.124 93.5531 72.124C92.4091 72.124 85.7531 72.124 84.3751 72.124C83.6211 72.124 82.0091 72.046 81.3071 71.942V75.66C81.8791 75.608 83.3091 75.478 84.3751 75.478C85.4931 75.478 92.1231 75.478 93.2151 75.478C92.6171 77.324 91.0311 79.898 89.3151 81.848C86.8711 84.552 82.8671 87.724 78.6551 89.284L81.3591 92.092C85.3891 90.194 89.3151 86.97 92.2271 83.616C94.4631 81.016 96.3871 77.48 97.4531 75.01C97.6871 74.464 98.1551 73.684 98.3631 73.398ZM92.5651 81.458L90.1211 83.876C92.9031 86.398 95.7371 89.492 97.6611 92.17L100.625 89.596C98.9351 87.516 95.2431 83.642 92.5651 81.458Z" fill="black"/>
</svg>
